{
  "source": "C:\\Users\\Peter\\Desktop\\stuff\\MIUN\\quantitative_research\\video_compression\\videos\\BVI-HD\\BVI-HD_CDVL_videos\\ORIG\\Rowing_1920x1080_30fps.mp4",
  "output": "C:\\Users\\Peter\\Desktop\\stuff\\MIUN\\quantitative_research\\video_compression\\compressed_videos\\BVI-HD\\h264\\1.5\\Rowing_1920x1080_30fps_h264.mp4",
  "codec": "h264",
  "ok": "Input #0, mov,mp4,m4a,3gp,3g2,mj2, from 'C:\\Users\\Peter\\Desktop\\stuff\\MIUN\\quantitative_research\\video_compression\\videos\\BVI-HD\\BVI-HD_CDVL_videos\\ORIG\\Rowing_1920x1080_30fps.mp4':\n  Metadata:\n    major_brand     : isom\n    minor_version   : 512\n    compatible_brands: isomiso2avc1mp41\n    encoder         : Lavf54.28.101\n  Duration: 00:00:05.00, start: 0.000000, bitrate: 259220 kb/s\n  Stream #0:0[0x1](und): Video: h264 (High 4:4:4 Predictive) (avc1 / 0x31637661), yuv420p(progressive), 1920x1080, 259216 kb/s, 30 fps, 30 tbr, 30 tbn (default)\n    Metadata:\n      handler_name    : VideoHandler\n      vendor_id       : [0][0][0][0]\n[out#0/mp4 @ 000002049fe1f200] Codec AVOption b:a (set bitrate (in bits/s)) has not been used for any stream. The most likely reason is either wrong type (e.g. a video option with no video streams) or that it is a private option of some decoder which was not actually used for any stream.\nStream mapping:\n  Stream #0:0 -> #0:0 (h264 (native) -> h264 (libx264))\nPress [q] to stop, [?] for help\n[libx264 @ 000002049fc20c00] using cpu capabilities: MMX2 SSE2Fast SSSE3 SSE4.2 AVX FMA3 BMI2 AVX2\n[libx264 @ 000002049fc20c00] profile High, level 5.0, 4:2:0, 8-bit\n[libx264 @ 000002049fc20c00] 264 - core 165 r3222 b35605a - H.264/MPEG-4 AVC codec - Copyleft 2003-2025 - http://www.videolan.org/x264.html - options: cabac=1 ref=5 deblock=1:0:0 analyse=0x3:0x113 me=hex subme=8 psy=1 psy_rd=1.00:0.00 mixed_ref=1 me_range=16 chroma_me=1 trellis=2 8x8dct=1 cqm=0 deadzone=21,11 fast_pskip=1 chroma_qp_offset=-2 threads=18 lookahead_threads=3 sliced_threads=0 nr=0 decimate=1 interlaced=0 bluray_compat=0 constrained_intra=0 bframes=3 b_pyramid=2 b_adapt=1 b_bias=0 direct=3 weightb=1 open_gop=0 weightp=2 keyint=250 keyint_min=25 scenecut=40 intra_refresh=0 rc_lookahead=50 rc=cbr mbtree=1 bitrate=1500 ratetol=1.0 qcomp=0.60 qpmin=0 qpmax=69 qpstep=4 vbv_maxrate=1500 vbv_bufsize=1500 nal_hrd=none filler=0 ip_ratio=1.40 aq=1:1.00\nOutput #0, mp4, to 'C:\\Users\\Peter\\Desktop\\stuff\\MIUN\\quantitative_research\\video_compression\\compressed_videos\\BVI-HD\\h264\\1.5\\Rowing_1920x1080_30fps_h264.mp4':\n  Metadata:\n    major_brand     : isom\n    minor_version   : 512\n    compatible_brands: isomiso2avc1mp41\n    encoder         : Lavf62.3.100\n  Stream #0:0(und): Video: h264 (avc1 / 0x31637661), yuv420p(tv, progressive), 1920x1080, q=2-31, 1500 kb/s, 30 fps, 15360 tbn (default)\n    Metadata:\n      encoder         : Lavc62.11.100 libx264\n      handler_name    : VideoHandler\n      vendor_id       : [0][0][0][0]\n    Side data:\n      cpb: bitrate max/min/avg: 1500000/0/1500000 buffer size: 1500000 vbv_delay: N/A\nframe=    0 fps=0.0 q=0.0 size=       0KiB time=N/A bitrate=N/A speed=N/A elapsed=0:00:00.53    \nframe=    0 fps=0.0 q=0.0 size=       0KiB time=N/A bitrate=N/A speed=N/A elapsed=0:00:01.11    \nframe=    0 fps=0.0 q=0.0 size=       0KiB time=N/A bitrate=N/A speed=N/A elapsed=0:00:01.71    \nframe=    0 fps=0.0 q=0.0 size=       0KiB time=N/A bitrate=N/A speed=N/A elapsed=0:00:02.33    \nframe=    0 fps=0.0 q=0.0 size=       0KiB time=N/A bitrate=N/A speed=N/A elapsed=0:00:02.86    \nframe=    0 fps=0.0 q=0.0 size=       0KiB time=N/A bitrate=N/A speed=N/A elapsed=0:00:03.44    \nframe=   12 fps=3.0 q=50.0 size=       0KiB time=00:00:00.33 bitrate=   1.2kbits/s speed=0.083x elapsed=0:00:04.01    \nframe=   22 fps=4.8 q=50.0 size=       0KiB time=00:00:00.66 bitrate=   0.6kbits/s speed=0.147x elapsed=0:00:04.54    \nframe=   31 fps=6.1 q=50.0 size=       0KiB time=00:00:00.93 bitrate=   0.4kbits/s speed=0.184x elapsed=0:00:05.07    \nframe=   39 fps=6.9 q=50.0 size=       0KiB time=00:00:01.23 bitrate=   0.3kbits/s speed=0.218x elapsed=0:00:05.66    \nframe=   49 fps=7.9 q=49.0 size=       0KiB time=00:00:01.56 bitrate=   0.2kbits/s speed=0.253x elapsed=0:00:06.18    \nframe=   61 fps=9.1 q=49.0 size=     256KiB time=00:00:01.96 bitrate=1066.5kbits/s speed=0.293x elapsed=0:00:06.70    \nframe=   73 fps= 10 q=49.0 size=     256KiB time=00:00:02.36 bitrate= 886.3kbits/s speed=0.328x elapsed=0:00:07.22    \nframe=   85 fps= 11 q=49.0 size=     256KiB time=00:00:02.76 bitrate= 758.1kbits/s speed=0.358x elapsed=0:00:07.73    \nframe=  116 fps= 14 q=48.0 size=     512KiB time=00:00:03.63 bitrate=1154.5kbits/s speed=0.438x elapsed=0:00:08.29    \nframe=  137 fps= 15 q=-1.0 size=     512KiB time=00:00:04.43 bitrate= 946.2kbits/s speed=0.499x elapsed=0:00:08.87    \n[mp4 @ 000002049f1b9a40] Starting second pass: moving the moov atom to the beginning of the file\n[out#0/mp4 @ 000002049fe1f200] video:739KiB audio:0KiB subtitle:0KiB other streams:0KiB global headers:0KiB muxing overhead: 0.193783%\nframe=  150 fps= 16 q=-1.0 Lsize=     741KiB time=00:00:04.93 bitrate=1230.0kbits/s speed=0.534x elapsed=0:00:09.23    \n[libx264 @ 000002049fc20c00] frame I:1     Avg QP:47.98  size:  6166\n[libx264 @ 000002049fc20c00] frame P:149   Avg QP:47.55  size:  5034\n[libx264 @ 000002049fc20c00] mb I  I16..4: 33.5% 66.5%  0.0%\n[libx264 @ 000002049fc20c00] mb P  I16..4: 16.2%  6.2%  0.0%  P16..4: 17.8%  0.5%  0.8%  0.0%  0.0%    skip:58.4%\n[libx264 @ 000002049fc20c00] 8x8 transform intra:28.7% inter:98.9%\n[libx264 @ 000002049fc20c00] coded y,uvDC,uvAC intra: 2.3% 12.0% 0.0% inter: 1.3% 4.2% 0.0%\n[libx264 @ 000002049fc20c00] i16 v,h,dc,p: 42% 35%  6% 17%\n[libx264 @ 000002049fc20c00] i8 v,h,dc,ddl,ddr,vr,hd,vl,hu:  1%  2% 71%  2%  9%  3%  8%  2%  4%\n[libx264 @ 000002049fc20c00] i4 v,h,dc,ddl,ddr,vr,hd,vl,hu:  1%  1% 25%  6% 29%  9% 11%  4% 13%\n[libx264 @ 000002049fc20c00] i8c dc,h,v,p: 98%  2%  0%  0%\n[libx264 @ 000002049fc20c00] Weighted P-Frames: Y:0.0% UV:0.0%\n[libx264 @ 000002049fc20c00] ref P L0: 37.4%  1.5% 23.5% 12.5% 12.2% 12.8%\n[libx264 @ 000002049fc20c00] kb/s:1210.03\n",
  "seconds": 9.596285581588745,
  "probe_out": {}
}